<?xml version="1.0" standalone="no"?>
<!DOCTYPE svg PUBLIC "-//W3C//DTD SVG 20010904//EN"
 "http://www.w3.org/TR/2001/REC-SVG-20010904/DTD/svg10.dtd">
<svg version="1.0" xmlns="http://www.w3.org/2000/svg"
 width="1636.000000pt" height="1636.000000pt" viewBox="0 0 1636.000000 1636.000000"
 preserveAspectRatio="xMidYMid meet">
<metadata>
Created by potrace 1.11, written by Peter Selinger 2001-2013
</metadata>
<g transform="translate(0.000000,1636.000000) scale(0.100000,-0.100000)"
fill="#000000" stroke="none">
<path d="M10142 12073 c2 -5 38 -77 81 -160 l77 -153 1400 0 c770 0 1400 3
1400 6 0 3 -36 75 -81 160 l-81 154 -1400 0 c-770 0 -1398 -3 -1396 -7z"/>
<path d="M13797 12064 c-4 -4 -7 -81 -7 -171 l0 -163 749 0 c451 0 790 -4 852
-11 230 -23 328 -72 381 -188 36 -80 47 -181 47 -441 0 -338 -16 -424 -98
-513 -47 -50 -102 -77 -211 -103 -66 -15 -149 -18 -717 -21 l-643 -4 0 -170 0
-169 629 0 c678 0 726 -3 834 -53 96 -44 153 -127 183 -267 13 -60 17 -160 21
-497 l5 -423 184 0 184 0 0 410 c0 226 -5 455 -11 512 -12 112 -45 226 -83
287 -51 80 -175 164 -274 186 -40 8 -33 17 28 34 160 46 270 165 316 342 22
83 32 700 15 836 -48 366 -187 502 -581 570 -81 14 -219 17 -945 20 -468 3
-853 1 -858 -3z"/>
<path d="M176 12052 c-3 -5 257 -726 578 -1603 l583 -1594 230 -3 230 -2 585
1597 c382 1044 581 1601 574 1605 -6 4 -88 8 -183 8 -154 0 -173 -2 -182 -17
-5 -10 -235 -652 -512 -1428 -276 -775 -505 -1413 -508 -1417 -4 -4 -236 636
-515 1422 -303 850 -515 1431 -523 1435 -24 8 -351 6 -357 -3z"/>
<path d="M3710 11900 l81 -160 1400 0 c769 0 1399 3 1399 6 0 4 -36 76 -81
160 l-80 154 -1400 0 -1400 0 81 -160z"/>
<path d="M7260 10459 l0 -1601 828 5 c897 5 947 7 1138 63 288 83 400 243 445
634 14 128 7 386 -16 519 -38 230 -150 370 -346 433 -38 12 -69 25 -69 28 0 3
26 15 57 25 69 24 160 90 197 144 75 108 111 324 102 616 -8 282 -53 455 -142
554 -54 60 -108 93 -208 125 -161 53 -224 56 -1141 56 l-845 0 0 -1601z m1476
1261 c297 -15 386 -43 437 -137 41 -77 57 -179 57 -366 -1 -394 -70 -498 -348
-527 -58 -7 -331 -10 -687 -8 l-590 3 -3 510 c-1 281 0 516 3 523 5 15 844 17
1131 2z m-46 -1370 c332 -14 448 -43 523 -130 70 -82 104 -267 93 -504 -15
-334 -65 -435 -242 -489 -67 -21 -90 -21 -766 -25 l-698 -3 0 574 c0 315 3
577 7 580 10 10 828 8 1083 -3z"/>
<path d="M10196 10593 c31 -60 68 -129 83 -155 l26 -48 1368 0 c752 0 1367 3
1367 8 0 4 -36 72 -79 152 l-78 145 -1372 3 -1373 2 58 -107z"/>
<path d="M3686 10573 c31 -60 68 -129 83 -155 l26 -48 1368 0 c752 0 1367 3
1367 8 0 4 -36 72 -79 152 l-78 145 -1372 3 -1373 2 58 -107z"/>
<path d="M10140 9205 c0 -3 36 -75 81 -160 l81 -155 1399 0 c769 0 1399 1
1399 3 0 2 -36 74 -81 160 l-80 157 -1400 0 c-769 0 -1399 -2 -1399 -5z"/>
<path d="M3640 9171 c0 -4 34 -74 76 -155 l75 -146 1401 0 c866 0 1398 4 1396
9 -1 6 -37 75 -78 155 l-75 146 -1397 0 c-769 0 -1398 -4 -1398 -9z"/>
<path d="M14365 7569 c-303 -30 -459 -122 -559 -333 -69 -144 -96 -295 -96
-539 0 -401 99 -630 320 -742 161 -81 242 -94 945 -150 328 -26 596 -51 630
-60 83 -22 145 -62 173 -113 48 -87 74 -373 53 -590 -16 -163 -32 -214 -84
-266 -87 -87 -209 -122 -479 -137 -227 -13 -801 3 -915 26 -242 48 -312 168
-331 570 l-7 150 -169 3 c-129 2 -171 -1 -178 -10 -21 -34 0 -370 33 -512 28
-121 51 -177 106 -259 107 -162 285 -256 546 -289 164 -21 1046 -17 1202 5
289 40 452 143 556 350 63 124 97 393 85 667 -18 420 -135 614 -426 709 -109
36 -214 49 -790 96 -537 44 -638 57 -717 90 -134 56 -185 181 -185 455 -1 280
59 432 191 489 150 64 511 86 984 61 217 -12 307 -28 392 -70 64 -31 107 -82
125 -150 15 -54 30 -206 30 -298 l0 -82 178 2 177 3 -1 165 c0 301 -57 468
-193 577 -112 88 -264 146 -456 174 -99 14 -1013 21 -1140 8z"/>
<path d="M3707 7544 c-4 -4 -7 -727 -7 -1606 l0 -1598 175 0 175 0 2 743 3
742 920 0 920 0 3 -742 2 -743 175 0 175 0 -2 1603 -3 1602 -172 3 -173 2 0
-695 0 -695 -925 0 -925 0 -2 693 -3 692 -166 3 c-91 1 -168 -1 -172 -4z"/>
<path d="M7030 5945 l0 -1605 175 0 175 0 -2 1603 -3 1602 -172 3 -173 2 0
-1605z"/>
<path d="M7727 7543 c-4 -3 -7 -80 -7 -170 l0 -163 508 -2 507 -3 3 -1433 2
-1432 178 2 177 3 3 1433 2 1432 510 0 510 0 0 164 c0 140 -2 165 -16 170 -22
8 -2369 8 -2377 -1z"/>
<path d="M10430 6374 c0 -1276 0 -1270 56 -1484 88 -335 292 -501 699 -566
135 -21 694 -31 900 -15 409 31 645 140 774 355 47 79 97 229 123 376 l23 125
0 1190 0 1190 -175 0 -175 0 -6 -1220 c-6 -1323 -4 -1286 -60 -1402 -32 -66
-114 -144 -190 -182 -101 -50 -185 -60 -539 -67 -350 -7 -641 6 -730 32 -133
39 -237 123 -287 232 -56 120 -55 107 -62 1407 l-6 1200 -172 3 -173 2 0
-1176z"/>
<path d="M232 7528 c2 -7 36 -77 76 -155 l72 -143 1401 0 c913 0 1400 3 1397
10 -1 5 -37 75 -78 155 l-75 145 -1398 0 c-1114 0 -1398 -3 -1395 -12z"/>
<path d="M230 6158 c0 -7 36 -78 78 -158 l78 -145 1367 -3 c1091 -2 1367 0
1367 10 -1 7 -36 78 -79 158 l-79 145 -1366 3 c-1090 2 -1366 0 -1366 -10z"/>
<path d="M230 4658 c1 -7 36 -78 78 -158 l77 -145 1398 -3 c768 -1 1397 1
1397 6 0 4 -35 75 -77 157 l-78 150 -1397 3 c-1115 2 -1398 0 -1398 -10z"/>
</g>
</svg>
