<?xml version="1.0" encoding="utf-8"?>
<!-- Generator: Adobe Illustrator 16.0.0, SVG Export Plug-In . SVG Version: 6.00 Build 0)  -->
<!DOCTYPE svg PUBLIC "-//W3C//DTD SVG 1.1//EN" "http://www.w3.org/Graphics/SVG/1.1/DTD/svg11.dtd">
<svg version="1.1" id="Layer_1" xmlns="http://www.w3.org/2000/svg" xmlns:xlink="http://www.w3.org/1999/xlink" x="0px" y="0px"
	 width="561.26px" height="73.7px" viewBox="0 0 561.26 73.7" enable-background="new 0 0 561.26 73.7" xml:space="preserve">
<g>
	<path fill-rule="evenodd" clip-rule="evenodd" d="M120.136,62.721c0-16.928,0-33.778,0-50.747c0.396,0,0.752,0,1.107,0
		c7.333,0,14.668-0.069,22,0.037c2.648,0.038,5.316,0.343,7.928,0.797c3.143,0.547,4.836,2.689,5.483,5.751
		c0.824,3.902,0.794,7.817,0.152,11.726c-0.442,2.693-1.873,4.666-4.573,5.546c-0.183,0.06-0.353,0.161-0.664,0.305
		c0.336,0.148,0.554,0.273,0.788,0.345c3.392,1.032,5.239,3.348,5.749,6.821c0.528,3.588,0.583,7.168-0.074,10.744
		c-0.919,4.998-3.308,7.348-8.517,8.096c-2.531,0.363-5.105,0.559-7.663,0.588c-7,0.078-14,0.027-21,0.027
		C120.655,62.754,120.456,62.736,120.136,62.721z M125.65,57.396c0.356,0.025,0.617,0.059,0.877,0.059
		c5.8,0.004,11.6,0.018,17.399-0.01c1.295-0.008,2.599-0.104,3.883-0.277c2.704-0.365,3.89-1.398,4.377-3.92
		c0.631-3.264,0.736-6.553,0.026-9.828c-0.418-1.93-1.526-3.271-3.522-3.629c-1.667-0.299-3.36-0.588-5.046-0.617
		c-5.665-0.102-11.332-0.086-16.998-0.113c-0.321,0-0.642,0.031-0.997,0.049C125.65,45.236,125.65,51.26,125.65,57.396z
		 M125.66,33.933c0.49,0,0.852,0,1.213,0c5.46,0,10.921,0.008,16.382-0.007c0.997-0.003,1.998-0.06,2.991-0.157
		c2.685-0.263,4.257-1.386,4.73-3.542c0.694-3.156,0.74-6.347,0.029-9.51c-0.321-1.428-1.197-2.503-2.711-2.739
		c-1.835-0.286-3.69-0.569-5.541-0.597c-5.427-0.082-10.855-0.037-16.282-0.038c-0.256,0-0.513,0.036-0.811,0.058
		C125.66,22.908,125.66,28.353,125.66,33.933z"/>
	<path fill-rule="evenodd" clip-rule="evenodd" d="M529.007,26.229c-0.117-1.766-0.173-3.361-0.34-4.944
		c-0.241-2.286-1.221-3.399-3.465-3.936c-1.063-0.254-2.16-0.447-3.25-0.503c-4.792-0.249-9.592-0.508-14.375,0.118
		c-2.16,0.283-4.275,0.792-5.173,3.133c-0.364,0.952-0.659,1.99-0.69,2.998c-0.061,1.955-0.039,3.931,0.181,5.871
		c0.273,2.414,1.716,3.878,4.145,4.186c3.435,0.435,6.893,0.689,10.34,1.019c3.282,0.314,6.593,0.452,9.84,0.979
		c5.715,0.927,8.091,3.512,8.814,9.206c0.427,3.359,0.343,6.725-0.242,10.059c-0.889,5.059-4.089,8.021-9.284,8.525
		c-6.682,0.648-13.376,0.715-20.061,0.039c-5.384-0.545-8.68-3.529-9.823-8.813c-0.245-1.137-0.424-2.299-0.49-3.457
		c-0.084-1.457-0.021-2.922-0.021-4.455c1.846,0,3.656,0,5.53,0c0.071,1.402,0.107,2.793,0.223,4.176
		c0.08,0.959,0.217,1.92,0.418,2.861c0.524,2.449,2.025,4.076,4.531,4.248c4.48,0.309,8.977,0.467,13.467,0.502
		c2.011,0.016,4.054-0.279,6.03-0.684c2.441-0.5,3.96-2.045,3.996-4.662c0.038-2.824,0.084-5.658-0.094-8.473
		c-0.146-2.295-1.454-3.588-3.753-3.842c-3.773-0.418-7.564-0.668-11.345-1.025c-3.247-0.309-6.526-0.465-9.725-1.053
		c-5.113-0.94-7.386-3.368-8.243-8.441c-0.627-3.714-0.59-7.448,0.397-11.105c1.056-3.908,3.575-6.462,7.638-6.924
		c7.202-0.818,14.432-0.811,21.634,0.137c1.041,0.137,2.067,0.516,3.054,0.903c3.505,1.375,5.226,4.089,5.554,7.739
		c0.144,1.588,0.154,3.192,0.151,4.789c0,0.277-0.356,0.785-0.564,0.793C532.354,26.258,530.692,26.229,529.007,26.229z"/>
	<path fill-rule="evenodd" clip-rule="evenodd" d="M377.403,62.678c-1.809,0-3.564,0-5.465,0c0-7.805,0-15.607,0-23.463
		c-9.823,0-19.502,0-29.29,0c0,7.814,0,15.594,0,23.441c-1.886,0-3.665,0-5.518,0c0-16.855,0-33.699,0-50.625
		c1.783,0,3.587,0,5.482,0c0,7.255,0,14.473,0,21.771c9.795,0,19.5,0,29.292,0c0-7.274,0-14.494,0-21.782c1.866,0,3.646,0,5.498,0
		C377.403,28.867,377.403,45.713,377.403,62.678z"/>
	<path fill-rule="evenodd" clip-rule="evenodd" d="M479.037,12c1.942,0,3.729,0,5.623,0c0,0.405,0,0.762,0,1.118
		c0.001,11.163,0.05,22.327-0.035,33.489c-0.019,2.379-0.359,4.787-0.842,7.121c-1.096,5.309-4.65,8.105-9.829,9.021
		c-4.823,0.852-9.695,0.699-14.551,0.484c-2.212-0.1-4.449-0.4-6.603-0.912c-4.662-1.109-7.375-4.25-8.264-8.875
		c-0.462-2.406-0.771-4.881-0.79-7.328c-0.082-10.962-0.035-21.925-0.034-32.889c0-0.39,0-0.78,0-1.225c1.9,0,3.686,0,5.593,0
		c0.021,0.423,0.058,0.838,0.058,1.254c0.003,10.597-0.013,21.193,0.016,31.789c0.005,1.963,0.083,3.936,0.303,5.883
		c0.397,3.527,2.803,5.98,6.347,6.223c3.816,0.264,7.652,0.262,11.479,0.309c1.495,0.02,3.002-0.064,4.485-0.244
		c4.42-0.531,6.61-2.898,6.866-7.367c0.105-1.828,0.167-3.662,0.17-5.494c0.016-10.362,0.008-20.726,0.008-31.089
		C479.037,12.875,479.037,12.481,479.037,12z"/>
	<path fill-rule="evenodd" clip-rule="evenodd" d="M219.444,16.982c0-1.84,0-3.557,0-5.4c0.398,0,0.754,0,1.11,0
		c7.131,0,14.264-0.066,21.395,0.034c2.717,0.039,5.455,0.304,8.138,0.741c4.266,0.695,6.903,3.34,7.178,7.639
		c0.295,4.601,0.278,9.25-0.012,13.852c-0.205,3.255-2.295,5.362-5.549,6.151c-0.088,0.021-0.164,0.094-0.375,0.219
		c0.283,0.111,0.469,0.203,0.665,0.26c3.162,0.926,5.074,3.045,5.26,6.301c0.301,5.273,0.338,10.563,0.488,15.914
		c-2.13,0-4.015,0-6.06,0c0-0.338,0-0.688,0-1.037c0-3.166,0.02-6.332-0.01-9.498c-0.011-1.162-0.081-2.332-0.227-3.484
		c-0.482-3.816-2.323-5.592-6.182-5.705c-4.861-0.141-9.728-0.119-14.592-0.16c-1.829-0.014-3.658-0.002-5.573-0.002
		c0-1.744,0-3.424,0-5.293c0.35,0,0.73,0.002,1.11,0c5.864-0.037,11.729-0.058,17.593-0.127c1.024-0.012,2.065-0.144,3.066-0.368
		c3.173-0.709,4.448-1.861,4.675-5.087c0.235-3.34,0.103-6.723-0.104-10.072c-0.15-2.439-1.667-3.981-4.119-4.318
		c-2.138-0.293-4.303-0.52-6.458-0.541c-6.731-0.065-13.463-0.019-20.195-0.017C220.278,16.982,219.889,16.982,219.444,16.982z"/>
	<path fill-rule="evenodd" clip-rule="evenodd" d="M15.33,11.95c1.899,0,3.663-0.042,5.421,0.041
		c0.293,0.014,0.689,0.527,0.819,0.888c2.045,5.664,4.053,11.342,6.072,17.016c3.124,8.777,6.25,17.553,9.377,26.328
		c0.109,0.307,0.233,0.607,0.44,1.143c0.205-0.508,0.341-0.816,0.454-1.131c5.162-14.445,10.327-28.888,15.462-43.341
		c0.252-0.71,0.545-0.995,1.319-0.965c1.595,0.063,3.194,0.02,4.925,0.02c-0.116,0.374-0.195,0.672-0.3,0.96
		C53.356,29.221,47.386,45.531,41.441,61.85c-0.249,0.682-0.574,0.914-1.291,0.893c-1.765-0.051-3.534-0.063-5.297,0.004
		c-0.771,0.029-1.097-0.24-1.352-0.941c-3.797-10.445-7.621-20.879-11.437-31.316c-2.148-5.875-4.295-11.75-6.44-17.626
		C15.535,12.616,15.463,12.363,15.33,11.95z"/>
	<path fill-rule="evenodd" clip-rule="evenodd" d="M400.926,12.01c12.638,0,25.217,0,37.851,0c0,1.747,0,3.435,0,5.26
		c-5.346,0-10.688,0-16.124,0c0,15.184,0,30.232,0,45.369c-1.903,0-3.715,0-5.664,0c0-15.051,0-30.125,0-45.304
		c-5.416,0-10.698,0-16.063,0C400.926,15.521,400.926,13.811,400.926,12.01z"/>
	<path fill-rule="evenodd" clip-rule="evenodd" d="M395.373,62.676c-1.835,0-3.618,0-5.482,0c0-16.879,0-33.72,0-50.643
		c1.787,0,3.599,0,5.482,0C395.373,28.867,395.373,45.711,395.373,62.676z"/>
	<path fill-rule="evenodd" clip-rule="evenodd" d="M329.876,62.725c-0.537,0-0.864,0-1.19,0c-14.159,0-28.318-0.008-42.479,0.02
		c-0.817,0.002-1.247-0.238-1.582-0.979c-0.612-1.352-1.332-2.654-2.069-4.098c0.483-0.025,0.801-0.057,1.118-0.057
		c14.192-0.002,28.385,0.006,42.578-0.021c0.789-0.002,1.188,0.236,1.51,0.941C328.38,59.889,329.1,61.199,329.876,62.725z"/>
	<path fill-rule="evenodd" clip-rule="evenodd" d="M282.531,11.996c0.563,0,0.919,0,1.275,0c14.122,0,28.243,0.006,42.365-0.016
		c0.794-0.001,1.265,0.186,1.604,0.953c0.603,1.358,1.328,2.661,2.066,4.111c-0.467,0.027-0.783,0.062-1.1,0.062
		c-14.188,0.003-28.377-0.004-42.565,0.021c-0.771,0.001-1.202-0.195-1.527-0.918C284.038,14.848,283.316,13.539,282.531,11.996z"/>
	<path fill-rule="evenodd" clip-rule="evenodd" d="M328.934,39.295c-0.553,0-0.881,0-1.208,0c-13.821,0-27.643-0.01-41.465,0.02
		c-0.861,0.002-1.309-0.268-1.664-1.041c-0.604-1.313-1.33-2.569-2.106-4.04c0.582,0,0.935,0,1.287,0
		c13.821,0,27.643,0.007,41.465-0.019c0.775-0.001,1.2,0.215,1.532,0.922C327.407,36.484,328.142,37.784,328.934,39.295z"/>
	<path fill-rule="evenodd" clip-rule="evenodd" d="M63.749,11.965c0.56,0,0.892,0,1.224,0c14.16,0,28.319,0.006,42.479-0.018
		c0.766-0.001,1.201,0.184,1.526,0.913c0.606,1.357,1.328,2.663,2.091,4.167c-0.533,0-0.884,0-1.235,0
		c-14.126,0-28.252-0.008-42.379,0.021c-0.858,0.002-1.311-0.245-1.66-1.031C65.207,14.691,64.493,13.42,63.749,11.965z"/>
	<path fill-rule="evenodd" clip-rule="evenodd" d="M63.751,57.574c0.567,0,0.933,0,1.298,0c14.095,0,28.189,0.012,42.284-0.025
		c0.918-0.002,1.365,0.289,1.723,1.088c0.582,1.297,1.273,2.545,1.988,3.953c-0.463,0.025-0.778,0.059-1.092,0.059
		c-14.195,0.004-28.389-0.004-42.584,0.021c-0.778,0.002-1.198-0.221-1.522-0.936C65.232,60.381,64.513,59.072,63.751,57.574z"/>
	<path fill-rule="evenodd" clip-rule="evenodd" d="M211.698,62.652c-0.581,0-0.942,0-1.305,0c-14.066,0-28.131-0.01-42.197,0.02
		c-0.923,0.002-1.44-0.244-1.815-1.113c-0.563-1.305-1.274-2.547-1.982-3.932c0.466-0.021,0.813-0.051,1.161-0.051
		c14.166-0.002,28.332,0.008,42.498-0.023c0.832-0.002,1.245,0.273,1.576,0.99C210.243,59.867,210.937,61.15,211.698,62.652z"/>
	<path fill-rule="evenodd" clip-rule="evenodd" d="M211.694,17.028c-0.57,0-0.933,0-1.296,0c-14.097,0-28.195-0.007-42.292,0.019
		c-0.84,0.001-1.325-0.199-1.678-1.004c-0.583-1.333-1.301-2.607-2.022-4.024c0.46-0.021,0.807-0.052,1.154-0.052
		c14.164-0.002,28.328,0.006,42.492-0.023c0.823-0.002,1.249,0.256,1.582,0.981C210.24,14.25,210.936,15.533,211.694,17.028z"/>
	<path fill-rule="evenodd" clip-rule="evenodd" d="M164.337,34.188c0.536,0,0.863,0,1.189,0c13.855,0,27.709,0.007,41.564-0.021
		c0.783-0.001,1.197,0.229,1.527,0.926c0.635,1.342,1.362,2.641,2.137,4.122c-0.534,0-0.887,0-1.24,0
		c-13.821,0-27.643-0.008-41.464,0.02c-0.815,0.002-1.254-0.248-1.597-0.975C165.832,36.944,165.116,35.672,164.337,34.188z"/>
	<path fill-rule="evenodd" clip-rule="evenodd" d="M110.132,39.215c-0.545,0-0.876,0-1.207,0c-13.821,0-27.642-0.01-41.462,0.021
		c-0.864,0.002-1.307-0.262-1.662-1.031c-0.606-1.314-1.332-2.572-2.093-4.017c0.531,0,0.851,0,1.171,0
		c13.854,0,27.708,0.006,41.563-0.017c0.761-0.001,1.206,0.178,1.542,0.902C108.608,36.422,109.347,37.719,110.132,39.215z"/>
</g>
</svg>
