<?xml version="1.0" encoding="utf-8"?>
<!-- Generator: Adobe Illustrator 16.0.0, SVG Export Plug-In . SVG Version: 6.00 Build 0)  -->
<!DOCTYPE svg PUBLIC "-//W3C//DTD SVG 1.1//EN" "http://www.w3.org/Graphics/SVG/1.1/DTD/svg11.dtd">
<svg version="1.1" id="Layer_1" xmlns="http://www.w3.org/2000/svg" xmlns:xlink="http://www.w3.org/1999/xlink" x="0px" y="0px"
	 width="566.93px" height="198.43px" viewBox="0 0 566.93 198.43" enable-background="new 0 0 566.93 198.43" xml:space="preserve">
<g>
	<path fill="#020202" d="M129.284,76.359c0-16.928,0-33.777,0-50.747c0.396,0,0.752,0,1.107,0c7.333,0,14.668-0.068,22,0.037
		c2.647,0.038,5.315,0.344,7.928,0.797c3.143,0.548,4.836,2.689,5.482,5.752c0.824,3.901,0.795,7.816,0.152,11.726
		c-0.442,2.693-1.873,4.666-4.573,5.546c-0.183,0.06-0.353,0.161-0.664,0.305c0.336,0.148,0.555,0.273,0.788,0.346
		c3.393,1.031,5.239,3.347,5.749,6.819c0.528,3.59,0.583,7.168-0.074,10.744c-0.919,4.998-3.308,7.351-8.517,8.099
		c-2.531,0.36-5.104,0.559-7.663,0.588c-7,0.078-14,0.024-21,0.024C129.803,76.394,129.604,76.376,129.284,76.359z M134.798,71.036
		c0.356,0.022,0.617,0.059,0.877,0.059c5.801,0.004,11.601,0.018,17.399-0.01c1.295-0.008,2.599-0.105,3.883-0.277
		c2.704-0.365,3.891-1.397,4.377-3.92c0.631-3.264,0.736-6.553,0.026-9.828c-0.418-1.93-1.526-3.271-3.522-3.629
		c-1.667-0.299-3.359-0.588-5.046-0.617c-5.665-0.102-11.332-0.086-16.998-0.112c-0.32,0-0.642,0.03-0.997,0.049
		C134.798,58.876,134.798,64.898,134.798,71.036z M134.809,47.573c0.489,0,0.852,0,1.213,0c5.46,0,10.921,0.008,16.382-0.008
		c0.997-0.003,1.998-0.06,2.991-0.156c2.685-0.264,4.257-1.387,4.729-3.542c0.694-3.156,0.74-6.348,0.029-9.511
		c-0.321-1.428-1.197-2.503-2.711-2.738c-1.835-0.286-3.69-0.569-5.541-0.598c-5.427-0.082-10.855-0.037-16.282-0.038
		c-0.256,0-0.513,0.036-0.811,0.059C134.809,36.548,134.809,41.993,134.809,47.573z"/>
	<path fill="#020202" d="M538.155,39.869c-0.117-1.767-0.173-3.361-0.341-4.944c-0.24-2.286-1.222-3.399-3.466-3.936
		c-1.063-0.255-2.159-0.447-3.25-0.504c-4.792-0.249-9.592-0.508-14.375,0.118c-2.159,0.283-4.273,0.792-5.173,3.133
		c-0.363,0.952-0.659,1.99-0.688,2.998c-0.063,1.955-0.039,3.932,0.181,5.871c0.273,2.414,1.716,3.878,4.146,4.187
		c3.436,0.435,6.894,0.688,10.341,1.019c3.281,0.314,6.593,0.452,9.84,0.979c5.715,0.927,8.091,3.512,8.813,9.206
		c0.429,3.358,0.345,6.725-0.241,10.059c-0.89,5.062-4.089,8.021-9.283,8.525c-6.684,0.647-13.376,0.715-20.063,0.039
		c-5.384-0.545-8.68-3.529-9.822-8.813c-0.244-1.137-0.425-2.299-0.489-3.457c-0.084-1.457-0.021-2.922-0.021-4.455
		c1.848,0,3.656,0,5.53,0c0.071,1.402,0.107,2.793,0.223,4.176c0.08,0.959,0.218,1.921,0.418,2.861
		c0.524,2.449,2.025,4.076,4.531,4.248c4.48,0.309,8.978,0.467,13.467,0.502c2.013,0.016,4.056-0.279,6.03-0.684
		c2.441-0.5,3.96-2.045,3.996-4.662c0.038-2.824,0.084-5.658-0.094-8.474c-0.146-2.297-1.454-3.59-3.753-3.844
		c-3.773-0.418-7.564-0.668-11.347-1.022c-3.247-0.312-6.524-0.466-9.725-1.056c-5.113-0.938-7.386-3.366-8.243-8.439
		c-0.627-3.714-0.59-7.448,0.397-11.105c1.056-3.908,3.573-6.462,7.638-6.924c7.202-0.818,14.432-0.811,21.634,0.137
		c1.041,0.138,2.067,0.517,3.055,0.903c3.506,1.375,5.227,4.089,5.555,7.739c0.144,1.588,0.152,3.191,0.149,4.789
		c0,0.276-0.354,0.785-0.563,0.793C541.502,39.896,539.84,39.869,538.155,39.869z"/>
	<path fill="#020202" d="M386.551,76.316c-1.809,0-3.563,0-5.465,0c0-7.805,0-15.606,0-23.463c-9.822,0-19.502,0-29.29,0
		c0,7.814,0,15.595,0,23.441c-1.886,0-3.665,0-5.519,0c0-16.855,0-33.699,0-50.625c1.783,0,3.588,0,5.481,0
		c0,7.255,0,14.473,0,21.771c9.796,0,19.5,0,29.292,0c0-7.273,0-14.493,0-21.781c1.866,0,3.646,0,5.498,0
		C386.551,42.507,386.551,59.353,386.551,76.316z"/>
	<path fill="#020202" d="M488.185,25.64c1.942,0,3.729,0,5.623,0c0,0.405,0,0.762,0,1.118c0.001,11.163,0.051,22.327-0.034,33.489
		c-0.02,2.379-0.358,4.787-0.843,7.121c-1.096,5.309-4.648,8.104-9.829,9.02c-4.821,0.854-9.693,0.699-14.551,0.484
		c-2.212-0.101-4.449-0.4-6.603-0.912c-4.662-1.109-7.375-4.25-8.266-8.875c-0.462-2.406-0.771-4.881-0.79-7.328
		c-0.082-10.961-0.033-21.924-0.032-32.888c0-0.391,0-0.78,0-1.226c1.898,0,3.686,0,5.593,0c0.021,0.423,0.058,0.838,0.058,1.254
		c0.003,10.598-0.013,21.193,0.018,31.789c0.005,1.963,0.083,3.937,0.303,5.883c0.396,3.527,2.803,5.98,6.347,6.224
		c3.816,0.264,7.652,0.262,11.479,0.309c1.494,0.021,3.002-0.063,4.483-0.244c4.42-0.528,6.61-2.896,6.866-7.364
		c0.105-1.828,0.167-3.662,0.17-5.494c0.018-10.362,0.008-20.728,0.008-31.089C488.185,26.515,488.185,26.121,488.185,25.64z"/>
	<path fill="#020202" d="M228.592,30.622c0-1.84,0-3.558,0-5.4c0.398,0,0.754,0,1.11,0c7.131,0,14.264-0.065,21.396,0.034
		c2.717,0.039,5.454,0.304,8.138,0.741c4.266,0.694,6.902,3.34,7.178,7.639c0.295,4.601,0.278,9.25-0.012,13.852
		c-0.205,3.256-2.295,5.361-5.549,6.15c-0.088,0.021-0.164,0.094-0.375,0.219c0.282,0.111,0.469,0.203,0.665,0.263
		c3.162,0.926,5.073,3.045,5.26,6.301c0.301,5.271,0.338,10.563,0.488,15.914c-2.131,0-4.016,0-6.061,0c0-0.338,0-0.689,0-1.037
		c0-3.166,0.021-6.332-0.01-9.498c-0.011-1.162-0.081-2.332-0.228-3.484c-0.481-3.815-2.322-5.592-6.182-5.705
		c-4.861-0.141-9.728-0.118-14.592-0.159c-1.829-0.015-3.658-0.002-5.573-0.002c0-1.744,0-3.425,0-5.292c0.351,0,0.73,0.002,1.11,0
		c5.864-0.037,11.729-0.06,17.593-0.128c1.024-0.012,2.065-0.144,3.066-0.367c3.173-0.709,4.447-1.861,4.675-5.087
		c0.234-3.341,0.103-6.724-0.104-10.072c-0.149-2.439-1.667-3.981-4.119-4.318c-2.138-0.293-4.303-0.52-6.458-0.541
		c-6.73-0.064-13.463-0.019-20.194-0.017C229.426,30.622,229.037,30.622,228.592,30.622z"/>
	<path fill="#020202" d="M24.479,25.59c1.898,0,3.663-0.042,5.421,0.041c0.293,0.014,0.688,0.527,0.818,0.888
		c2.046,5.664,4.054,11.342,6.072,17.017c3.124,8.776,6.25,17.552,9.377,26.327c0.109,0.308,0.233,0.607,0.44,1.144
		c0.205-0.508,0.341-0.816,0.454-1.131c5.162-14.445,10.327-28.888,15.462-43.34c0.252-0.71,0.545-0.995,1.318-0.966
		c1.596,0.063,3.194,0.021,4.926,0.021c-0.116,0.374-0.195,0.672-0.301,0.96c-5.963,16.312-11.933,32.622-17.878,48.94
		c-0.249,0.682-0.573,0.913-1.291,0.893c-1.765-0.051-3.533-0.063-5.297,0.004c-0.771,0.029-1.097-0.24-1.352-0.938
		c-3.797-10.445-7.621-20.882-11.438-31.316c-2.147-5.875-4.295-11.75-6.439-17.626C24.684,26.256,24.611,26.002,24.479,25.59z"/>
	<path fill="#020202" d="M410.074,25.648c12.638,0,25.217,0,37.851,0c0,1.747,0,3.436,0,5.261c-5.346,0-10.688,0-16.124,0
		c0,15.184,0,30.231,0,45.368c-1.901,0-3.715,0-5.664,0c0-15.051,0-30.125,0-45.304c-5.416,0-10.696,0-16.063,0
		C410.074,29.161,410.074,27.451,410.074,25.648z"/>
	<path fill="#020202" d="M404.521,76.314c-1.836,0-3.617,0-5.481,0c0-16.879,0-33.72,0-50.643c1.787,0,3.599,0,5.481,0
		C404.521,42.507,404.521,59.351,404.521,76.314z"/>
	<path fill="#020202" d="M339.023,76.364c-0.537,0-0.863,0-1.189,0c-14.159,0-28.316-0.009-42.479,0.02
		c-0.817,0.002-1.248-0.238-1.582-0.979c-0.612-1.352-1.332-2.653-2.069-4.098c0.483-0.024,0.801-0.057,1.118-0.057
		c14.191-0.002,28.385,0.006,42.578-0.021c0.789-0.002,1.188,0.236,1.51,0.941C337.527,73.527,338.248,74.839,339.023,76.364z"/>
	<path fill="#020202" d="M291.68,25.636c0.563,0,0.92,0,1.274,0c14.122,0,28.243,0.006,42.364-0.016
		c0.795-0.001,1.266,0.186,1.604,0.953c0.604,1.357,1.328,2.66,2.065,4.11c-0.467,0.027-0.782,0.063-1.1,0.063
		c-14.188,0.003-28.378-0.004-42.564,0.021c-0.771,0.001-1.202-0.195-1.527-0.918C293.188,28.487,292.464,27.179,291.68,25.636z"/>
	<path fill="#020202" d="M338.082,52.935c-0.553,0-0.881,0-1.208,0c-13.821,0-27.644-0.01-41.465,0.021
		c-0.861,0.002-1.31-0.269-1.664-1.041c-0.604-1.313-1.33-2.568-2.104-4.04c0.58,0,0.935,0,1.285,0
		c13.821,0,27.645,0.007,41.465-0.02c0.775-0.001,1.2,0.215,1.532,0.922C336.555,50.124,337.29,51.423,338.082,52.935z"/>
	<path fill="#020202" d="M72.897,25.604c0.56,0,0.892,0,1.224,0c14.16,0,28.319,0.006,42.479-0.018
		c0.766-0.001,1.2,0.184,1.525,0.913c0.606,1.356,1.328,2.663,2.091,4.167c-0.532,0-0.884,0-1.234,0
		c-14.126,0-28.252-0.008-42.379,0.021c-0.858,0.002-1.312-0.245-1.66-1.03C74.355,28.331,73.642,27.06,72.897,25.604z"/>
	<path fill="#020202" d="M72.899,71.214c0.566,0,0.933,0,1.298,0c14.095,0,28.188,0.012,42.284-0.025
		c0.918-0.002,1.364,0.289,1.723,1.088c0.582,1.298,1.273,2.545,1.988,3.953c-0.463,0.025-0.778,0.06-1.092,0.06
		c-14.195,0.004-28.39-0.004-42.584,0.021c-0.778,0.002-1.198-0.221-1.522-0.936C74.38,74.021,73.661,72.712,72.899,71.214z"/>
	<path fill="#020202" d="M220.846,76.292c-0.58,0-0.941,0-1.305,0c-14.065,0-28.131-0.01-42.197,0.02
		c-0.923,0.002-1.439-0.244-1.814-1.112c-0.563-1.306-1.274-2.548-1.982-3.933c0.467-0.021,0.813-0.051,1.161-0.051
		c14.166-0.002,28.332,0.008,42.498-0.023c0.832-0.002,1.245,0.273,1.576,0.99C219.392,73.507,220.085,74.79,220.846,76.292z"/>
	<path fill="#020202" d="M220.842,30.667c-0.569,0-0.933,0-1.296,0c-14.097,0-28.194-0.007-42.292,0.019
		c-0.84,0.001-1.325-0.199-1.678-1.004c-0.583-1.333-1.301-2.606-2.022-4.023c0.461-0.021,0.808-0.053,1.154-0.053
		c14.164-0.002,28.328,0.006,42.492-0.022c0.823-0.002,1.249,0.256,1.582,0.98C219.389,27.89,220.084,29.173,220.842,30.667z"/>
	<path fill="#020202" d="M173.485,47.828c0.536,0,0.863,0,1.188,0c13.855,0,27.709,0.007,41.564-0.021
		c0.783-0.001,1.197,0.229,1.527,0.926c0.635,1.343,1.361,2.642,2.137,4.122c-0.534,0-0.887,0-1.24,0
		c-13.821,0-27.643-0.008-41.464,0.021c-0.815,0.002-1.254-0.248-1.597-0.976C174.98,50.583,174.265,49.312,173.485,47.828z"/>
	<path fill="#020202" d="M119.28,52.854c-0.545,0-0.876,0-1.207,0c-13.821,0-27.642-0.01-41.462,0.021
		c-0.864,0.002-1.308-0.263-1.662-1.031c-0.606-1.314-1.332-2.572-2.093-4.017c0.53,0,0.851,0,1.171,0
		c13.854,0,27.708,0.006,41.563-0.018c0.762-0.001,1.206,0.178,1.542,0.902C117.756,50.062,118.495,51.358,119.28,52.854z"/>
</g>
<rect x="29.145" y="115.396" fill="none" width="512" height="52.999"/>
<text transform="matrix(1 0 0 1 29.145 158.0684)" fill="#010101" font-family="'RobotoCondensed-Regular'" font-size="56">Ehitus- ja remonditööd</text>
<line fill="none" x1="24.479" y1="99.215" x2="539.789" y2="99.215"/>
<line fill="none" x1="76.333" y1="99.215" x2="591.644" y2="99.215"/>
<line fill="none" x1="71" y1="-24.333" x2="72.856" y2="-24.333"/>
<g>
	<linearGradient id="SVGID_1_" gradientUnits="userSpaceOnUse" x1="22.6665" y1="103.166" x2="542.5918" y2="103.166">
		<stop  offset="0" style="stop-color:#FFFFFF;stop-opacity:0"/>
		<stop  offset="0" style="stop-color:#FFFFFF;stop-opacity:0"/>
		<stop  offset="0.5567" style="stop-color:#222222"/>
		<stop  offset="1" style="stop-color:#FFFFFF;stop-opacity:0"/>
	</linearGradient>
	<path fill-rule="evenodd" clip-rule="evenodd" fill="url(#SVGID_1_)" d="M22.667,102.136c173.308,0,346.616,0,519.923,0
		c0,0.688,0.002,1.374,0.002,2.062c-173.308,0-346.616,0-519.925,0C22.667,103.51,22.667,102.823,22.667,102.136z"/>
</g>
</svg>
